<?xml version="1.0" encoding="utf-8"?>
<!-- Generator: Adobe Illustrator 22.1.0, SVG Export Plug-In . SVG Version: 6.00 Build 0)  -->
<svg version="1.0" id="Layer_1" xmlns="http://www.w3.org/2000/svg" xmlns:xlink="http://www.w3.org/1999/xlink" x="0px" y="0px"
	 viewBox="0 0 1920 763" style="enable-background:new 0 0 1920 763;" xml:space="preserve">
<style type="text/css">
	.st0{fill:#3A78B8;}
	.st1{fill:#FFFFFF;}
</style>
<g>
	<path class="st0" d="M1094.74,414.9c-0.04-1.87,0.07-3.75-0.02-5.61c-0.29-6.17-0.38-12.37-1.03-18.5
		c-0.8-7.42-1.76-14.83-3.26-22.17c-4.09-20.06-11.25-38.88-22.29-56.19c-14.28-22.37-33.44-39.28-57.01-51.33
		c-17.05-8.71-35.11-14.3-53.87-17.76c-6.35-1.17-12.77-1.99-19.18-2.78c-5.41-0.66-10.85-1.33-16.3-1.52
		c-8.91-0.32-17.83-0.32-26.75-0.32c-5.89,0-11.79,0.11-17.68,0.42c-6.17,0.33-12.32,0.96-18.47,1.47
		c-4.16,0.35-8.33,0.56-12.45,1.11c-10.4,1.38-20.75,3.1-30.87,5.94c-5.39,1.51-10.74,3.21-16.03,5.02
		c-3.97,1.36-7.54,3.56-10.86,6.13c-4.49,3.46-7.45,7.84-8.48,13.55c-0.49,2.72-0.63,5.42-0.63,8.15v257.21
		c0,1.72-0.06,3.45,0.04,5.17c0.31,5.5,1.31,10.83,3.72,15.85c3.82,7.94,9.89,13.69,17.51,17.89c6.96,3.84,14.42,6.5,22.08,8.53
		c14.89,3.96,30.14,6.02,45.42,7.7c8.42,0.92,16.9,1.49,25.37,1.71c14.52,0.38,29.02,0.19,43.5-1.39
		c10.88-1.19,21.65-2.85,32.27-5.46c20.97-5.15,40.72-13.16,58.53-25.61c11.99-8.38,22.58-18.22,31.62-29.75
		c14.15-18.06,23.51-38.42,29.05-60.6c2.15-8.65,3.57-17.44,4.52-26.31C1094.28,435.29,1094.93,425.12,1094.74,414.9z
		 M995.13,431.49c-0.92,15.89-4.44,31.24-11.93,45.52c-9.23,17.57-23.36,29.28-42.13,35.38c-8.08,2.62-16.39,4.29-24.94,4.56
		c-2.86,0.09-5.74,0.59-8.59,0.48c-6.03-0.24-12.04-0.72-18.05-1.2c-3.15-0.25-6.29-0.65-9.41-1.1c-1.39-0.2-2.74-0.69-4.16-1.06
		c-0.18-1.24-0.38-2.21-0.44-3.19c-0.07-1.15-0.03-2.3-0.03-3.45c0-60.69,0-121.38,0.01-182.06c0-2,0.08-4,0.13-6.41
		c1.28-0.49,2.18-1.03,3.13-1.15c3.28-0.43,6.58-0.65,9.85-1.06c8.02-0.99,16.08-1.06,24.12-0.8c15.63,0.52,30.42,4.22,43.74,12.73
		c13.09,8.36,22.73,19.72,29.06,33.89c5.1,11.39,7.67,23.4,9.1,35.76C995.87,409.38,995.77,420.47,995.13,431.49z"/>
	<path class="st0" d="M1889.79,555.92c-0.13,4.07-1,7.97-2.22,11.82c-4.07,12.79-15.33,18.65-25.09,19.27
		c-1.86,0.12-3.74,0.17-5.6,0.17c-54.52,0.01-109.03-0.01-163.54,0.03c-6.81,0-13.51-0.62-19.94-2.94
		c-15.41-5.57-24.92-16.52-28.92-32.28c-1.34-5.29-1.82-10.73-1.82-16.23c0.06-39.41,0.03-78.82,0.03-118.23
		c0-39.56,0.01-79.11-0.01-118.66c0-6.23,0.68-12.37,2.58-18.28c5.49-17.13,17.25-27.37,34.72-31.26c4.95-1.1,9.98-1.14,15.01-1.14
		c51.78-0.01,103.56-0.01,155.34-0.01c7.33,0,14.67,0,22.01,0.01c1,0,2.01,0.05,3.01,0c2.3-0.12,3.76,0.92,4.75,2.97
		c2.65,5.46,4.76,11.11,6.06,17.03c1.9,8.62,2.37,17.32,1.22,26.12c-0.6,4.61-1.57,9.04-3.55,13.25c-2.14,4.59-5.45,8.07-9.72,10.69
		c-4.76,2.91-9.91,4.53-15.51,4.63c-1.87,0.03-3.74,0.03-5.61,0.03c-36.39,0.01-72.78,0-109.17,0.01c-1.58,0-3.17-0.02-4.74,0.14
		c-1.76,0.18-2.57,1.01-2.79,2.75c-0.14,1.13-0.14,2.29-0.14,3.44v41.42c0,1.01-0.01,2.02,0.1,3.02c0.23,2.2,1.02,2.98,3.32,3.17
		c1.58,0.12,3.16,0.08,4.75,0.08c36.67,0.01,73.35,0,110.03,0c1.15,0,2.3,0,3.45,0.01c4.66,0.04,5.1-0.62,7.5,4.73
		c2.6,5.78,4.78,11.73,5.83,18.01c1.16,6.96,1.75,13.94,0.79,21.02c-0.54,3.99-1.02,7.96-2.3,11.81
		c-3.39,10.11-10.64,15.73-20.8,17.97c-3.52,0.78-7.1,0.95-10.71,0.95c-31.5-0.04-63-0.03-94.5-0.02c-1.58,0-3.16-0.02-4.74,0.09
		c-1.59,0.12-2.32,0.85-2.56,2.41c-0.13,0.85-0.15,1.72-0.15,2.58c-0.01,16.69-0.01,33.37-0.01,50.05c0,0.72,0.01,1.45,0.09,2.16
		c0.24,2.08,0.93,2.79,3,2.92c1.58,0.1,3.16,0.07,4.75,0.07h129.88c1.29,0,2.59,0.07,3.88,0c2.15-0.12,3.54,0.89,4.41,2.78
		c0.3,0.65,0.66,1.28,0.95,1.93c2.96,6.59,5.29,13.4,6.29,20.55C1890.28,543.24,1889.99,549.59,1889.79,555.92z"/>
	<path class="st0" d="M1588.73,547.25c-1.26,7.82-4.53,14.51-9.66,20.34c-6.56,7.46-14.59,12.97-23.63,17.01
		c-9.5,4.25-19.5,6.76-29.76,8.45c-15.82,2.61-31.75,2.94-47.71,2.52c-25.06-0.65-49.42-5.09-72.75-14.44
		c-27.22-10.9-49.75-27.94-66.86-51.89c-14.1-19.72-23.14-41.63-27.79-65.36c-1.37-7.04-2.3-14.16-3-21.32
		c-0.41-4.31-0.6-8.6-0.79-12.9c-0.12-3.01-0.46-6.02-0.55-9.03c-0.08-3.02-0.01-6.04,0.08-9.05c0.05-1.86,0.34-3.72,0.38-5.59
		c0.28-14.56,2.13-28.94,5.62-43.06c3.6-14.58,9.07-28.48,16.32-41.65c8.32-15.1,18.68-28.63,31.39-40.33
		c11.19-10.3,23.63-18.74,37.31-25.39c15.76-7.66,32.35-12.7,49.6-15.53c6.51-1.07,13.06-1.98,19.7-2.11
		c4.45-0.09,8.89-0.55,13.34-0.62c9.34-0.14,18.65,0.58,27.96,1.46c8.74,0.83,17.37,2.27,25.86,4.52
		c13.19,3.5,25.52,8.87,36.21,17.54c8.49,6.9,14.75,15.31,16.99,26.25c0.48,2.37,0.69,4.83,0.76,7.26c0.12,4.45,0.13,8.9-0.95,13.29
		c-1.25,5.08-3.26,9.79-6.22,14.12c-3.44,5.04-7.69,9.3-12.29,13.24c-1.07,0.91-2.33,1.59-3.58,2.42
		c-4.05-2.34-7.85-4.65-11.75-6.77c-9.48-5.18-19.2-9.82-29.73-12.52c-7.81-2-15.73-3.31-23.85-3.13
		c-4.17,0.09-8.36-0.17-12.51,0.09c-16.2,1-31.45,5.05-44.97,14.46c-12.02,8.37-20.52,19.6-26.44,32.85
		c-4.31,9.63-6.81,19.8-8.35,30.23c-1.55,10.57-2.05,21.19-1.47,31.82c0.67,12.38,2.46,24.6,6.75,36.31
		c10.4,28.44,30.25,46.57,59.52,54.31c11.49,3.03,23.24,3.93,35.06,3.36c14.19-0.67,27.92-3.51,40.86-9.6
		c5.98-2.82,11.96-5.64,17.94-8.46c1.16-0.54,2.33-1.06,3.68-1.67c0.96,0.69,1.96,1.25,2.77,2.02c8.5,8.06,14.13,17.79,15.94,29.4
		C1589.04,535.74,1589.67,541.41,1588.73,547.25z"/>
	<path class="st0" d="M1248.62,576.43c0,1.72-0.02,3.45-0.1,5.17c-0.07,1.47-0.84,2.41-2.32,2.69c-2.97,0.56-5.91,1.26-8.9,1.65
		c-6.69,0.85-13.36,1.94-20.14,2.07c-4.02,0.08-8.03,0.47-12.05,0.58c-7.35,0.2-14.63-0.56-21.88-1.7
		c-4.72-0.74-9.23-2.19-13.46-4.42c-5.24-2.75-9.3-6.69-12.05-11.97c-1.61-3.08-2.84-6.29-3.53-9.69
		c-1.17-5.79-1.78-11.63-1.78-17.55c0.04-50.2,0.02-100.4,0.02-150.59c0-46.17,0-92.34,0.01-138.51c0-1.86,0.06-3.71,0.09-5.7
		c2.04-1.16,3.79-1.34,5.46-1.58c8.38-1.22,16.78-2.35,25.18-3.45c1.7-0.22,3.45-0.18,5.17-0.18c6.33-0.01,12.67-0.2,18.98,0.09
		c6.46,0.3,12.86,1.21,19.02,3.4c9.88,3.5,16.56,10.07,19.7,20.16c1.33,4.27,2.22,8.61,2.37,13.09c0.1,3.02,0.2,6.04,0.2,9.06
		C1248.62,384.84,1248.62,480.64,1248.62,576.43z"/>
</g>
<g>
	<path class="st0" d="M640.77,189.77c-2.6-3.11-5.65-5.72-9.17-7.77c-3.61-2.09-7.22-4.17-10.83-6.27
		c-29.21-16.98-58.43-33.95-87.63-50.94c-21.63-12.59-43.22-25.22-64.84-37.8c-30.58-17.8-61.2-35.49-91.71-53.4
		c-6.14-3.6-12.71-5.46-19.6-5.96c-7.3-0.53-14.65-0.66-21.94,0.62c-4.43,0.78-8.64,2.02-12.56,4.3c-8.07,4.7-16.2,9.32-24.3,13.98
		c-18.34,10.52-36.67,21.03-55,31.56c-18.33,10.53-36.65,21.07-54.97,31.6c-18.7,10.75-37.4,21.5-56.1,32.24
		c-16.46,9.45-32.92,18.9-49.39,28.34c-6.36,3.64-12.73,7.28-19.1,10.91c-3.28,1.88-6.14,4.23-8.47,7.24
		c-4.84,6.24-4.66,16.15,1.43,21.61c1.6,1.43,3.26,2.86,5.1,3.93c16.79,9.74,33.62,19.4,50.46,29.06
		c16.58,9.53,33.18,19.02,49.77,28.54c16.45,9.45,32.9,18.93,49.35,28.38c22.7,13.04,45.4,26.05,68.1,39.08
		c12.22,7.01,24.45,14.01,36.65,21.06c10.05,5.81,20.76,9.09,30.96,8.75c5.81-0.04,10.11-0.15,14.36-1.1
		c7.33-1.65,14.36-3.98,20.9-7.82c17.36-10.2,34.78-20.27,52.19-30.38c29.23-16.96,58.47-33.89,87.69-50.85
		c27.98-16.25,55.94-32.52,83.91-48.78c8.7-5.06,17.42-10.08,26.09-15.19c3.88-2.28,7.28-5.12,9.69-9.02
		C645.25,200.12,644.96,194.78,640.77,189.77z M488.29,196.41c-1.58,3.27-3.91,6.04-6.93,8.12c-5.5,3.79-11.49,6.49-18.01,8.01
		c-6.21,1.44-12.55,1.73-18.85,1.71c-5.43-0.02-10.93-0.59-16.21-2.08c-4.62-1.32-9.07-0.87-13.58,0.34
		c-5.71,1.53-11.29,3.44-16.63,5.95c-6.75,3.17-12.32,7.88-17.08,13.58c-0.45,0.54-0.8,1.19-1.2,1.78c-1.02,1.49-1,2.95,0.12,4.37
		c1.71,2.2,2.64,4.75,3.49,7.36c0.97,2.99,0.94,5.94,0.07,8.91c-1.52,5.15-4.44,9.21-8.94,12.28c-8.83,6.02-18.69,8.62-29.19,9.3
		c-2.15,0.14-4.31,0.24-6.46,0.37c-8.58,0.13-16.9-1.46-25.03-3.97c-8.77-2.71-16.7-6.96-22.94-13.91
		c-2.55-2.84-4.29-6.12-5.15-9.83c-1.17-5.07-0.07-9.69,2.88-13.91c2.61-3.72,5.88-6.67,9.99-8.67c1.42-0.7,2.74-1.61,4.19-2.22
		c1.82-0.77,2.54-2.21,2.87-3.99c0.05-0.29,0.1-0.57,0.11-0.86c0.09-7.18-0.94-13.97-5.79-19.77c-3.06-3.67-6.34-7.04-10.1-9.98
		c-2.31-1.82-4.8-2.83-7.81-3.19c-10.51-1.23-20.6-3.97-29.73-9.56c-4.47-2.74-8.14-6.36-11.08-10.7c-7-10.35-1.51-20.88,5.11-25.44
		c9.25-6.36,19.5-9.6,30.71-10.05c10.88-0.44,21.52,0.64,31.89,4.08c5.08,1.69,9.9,3.9,14.34,6.88c5.11,3.43,9.39,7.62,11.58,13.53
		c0.83,2.22,2.41,3.49,4.47,4.37c9.96,4.26,20.24,7.37,30.99,8.86c0.14,0.02,0.29,0.06,0.43,0.06c8.33,0.27,16.61,1.43,24.97,1.02
		c2.39-0.12,4.46-0.75,6.44-2.09c9.22-6.24,19.54-8.75,30.54-9.15c10.76-0.39,21.24,0.91,31.37,4.6c5.71,2.08,11.05,5,15.85,8.64
		c4.86,3.71,8.52,8.49,9.79,14.78C490.53,189.66,489.88,193.13,488.29,196.41z"/>
	<path class="st1" d="M489.78,185.94c-1.27-6.29-4.93-11.07-9.79-14.78c-4.8-3.64-10.14-6.56-15.85-8.64
		c-10.13-3.69-20.61-4.99-31.37-4.6c-11,0.4-21.32,2.91-30.54,9.15c-1.98,1.34-4.05,1.97-6.44,2.09
		c-8.36,0.41-16.64-0.75-24.97-1.02c-0.14,0-0.29-0.04-0.43-0.06c-10.75-1.49-21.03-4.6-30.99-8.86c-2.06-0.88-3.64-2.15-4.47-4.37
		c-2.19-5.91-6.47-10.1-11.58-13.53c-4.44-2.98-9.26-5.19-14.34-6.88c-10.37-3.44-21.01-4.52-31.89-4.08
		c-11.21,0.45-21.46,3.69-30.71,10.05c-6.62,4.56-12.11,15.09-5.11,25.44c2.94,4.34,6.61,7.96,11.08,10.7
		c9.13,5.59,19.22,8.33,29.73,9.56c3.01,0.36,5.5,1.37,7.81,3.19c3.76,2.94,7.04,6.31,10.1,9.98c4.85,5.8,5.88,12.59,5.79,19.77
		c-0.01,0.29-0.06,0.57-0.11,0.86c-0.33,1.78-1.05,3.22-2.87,3.99c-1.45,0.61-2.77,1.52-4.19,2.22c-4.11,2-7.38,4.95-9.99,8.67
		c-2.95,4.22-4.05,8.84-2.88,13.91c0.86,3.71,2.6,6.99,5.15,9.83c6.24,6.95,14.17,11.2,22.94,13.91c8.13,2.51,16.45,4.1,25.03,3.97
		c2.15-0.13,4.31-0.23,6.46-0.37c10.5-0.68,20.36-3.28,29.19-9.3c4.5-3.07,7.42-7.13,8.94-12.28c0.87-2.97,0.9-5.92-0.07-8.91
		c-0.85-2.61-1.78-5.16-3.49-7.36c-1.12-1.42-1.14-2.88-0.12-4.37c0.4-0.59,0.75-1.24,1.2-1.78c4.76-5.7,10.33-10.41,17.08-13.58
		c5.34-2.51,10.92-4.42,16.63-5.95c4.51-1.21,8.96-1.66,13.58-0.34c5.28,1.49,10.78,2.06,16.21,2.08c6.3,0.02,12.64-0.27,18.85-1.71
		c6.52-1.52,12.51-4.22,18.01-8.01c3.02-2.08,5.35-4.85,6.93-8.12C489.88,193.13,490.53,189.66,489.78,185.94z M397.28,199.34
		c-1.09,1.34-2.04,2.81-3.22,4.05c-4.11,4.28-8.67,8-14.05,10.58c-7.16,3.44-14.64,5.95-22.4,7.65c-2.01,0.43-3.96,0.27-5.98-0.13
		c-4.22-0.85-8.47-1.59-12.73-2.19c-1.77-0.24-3.35-0.75-4.79-1.75c-5.24-3.63-10.12-7.67-13.52-13.14
		c-3.5-5.66-4.87-11.93-4.5-18.56c0.11-2.05,1.16-3.33,3.09-4.25c2.71-1.29,5.3-2.88,7.82-4.52c1.26-0.81,2.51-1.33,3.99-1.43
		c2.86-0.22,5.72-0.48,8.88-0.74c5.74,0.51,11.74,1.19,17.76,1.54c6.38,0.37,12.46,2.05,18.56,3.69c4.88,1.32,9.53,3.21,14.09,5.36
		c1.92,0.9,3.25,2.15,4.06,4.19c0.78,1.99,1.97,3.83,3.06,5.68C398.22,196.76,398.34,198.04,397.28,199.34z"/>
	<path class="st0" d="M332.83,442c-0.01-4.6-0.12-9.18-1.09-13.72c-1.62-7.54-4.24-14.65-8.87-20.87
		c-6.18-8.3-13.88-14.92-22.85-20.07c-16.57-9.53-33.15-19.05-49.71-28.61c-17.06-9.84-34.09-19.73-51.14-29.59
		c-19.79-11.44-39.59-22.86-59.37-34.3c-15.44-8.92-30.87-17.84-46.29-26.79c-11.43-6.64-22.85-13.31-34.25-20.02
		c-3.01-1.77-6.21-3.04-9.63-3.61c-6.02-1.01-11.17,0.46-14.65,5.84c-1.73,2.69-2.89,5.64-3.04,8.88c-0.09,1.87-0.1,3.74-0.1,5.61
		v251.09c0,5.46,0.02,10.93,0,16.39c-0.02,3.34,0.39,6.6,1.4,9.78c3,9.43,7.72,17.93,14.05,25.53c2.41,2.89,5.24,5.29,8.55,7.15
		c5.76,3.25,11.44,6.64,17.16,9.96c20.76,12.05,41.54,24.07,62.3,36.13c27.1,15.75,54.17,31.54,81.26,47.29
		c26.59,15.46,53.2,30.9,79.81,46.34c3.36,1.94,6.71,3.92,10.17,5.66c4.27,2.16,8.79,3.6,13.67,3.29c1.26-0.09,2.68-0.23,3.72-0.86
		c4.91-2.95,8.37-7,8.77-13.02c0.15-2.15,0.14-4.31,0.14-6.46V476.08C332.84,464.72,332.86,453.36,332.83,442z M219.86,408.79
		c0.02-1.42,0.27-2.86,0.62-4.25c0.73-2.94,2.68-4.37,5.69-4c1.38,0.17,2.83,0.65,4,1.38c4.48,2.81,7.24,6.88,8.21,12.09
		c0.88,4.69,0.54,9.44,0.47,14.17c-0.05,2.86-0.3,5.72-0.49,8.58c-0.04,0.55-0.28,1.09-0.57,2.21c-1.48-0.55-2.59-0.82-3.55-1.35
		c-3.75-2.11-7.42-4.35-11.18-6.45c-2.24-1.25-3.29-3.05-3.27-5.59C219.83,419.98,219.78,414.39,219.86,408.79z M189.42,388.67
		c0.01-0.97,0.32-1.98,0.7-2.89c1.11-2.67,3.5-3.89,6.28-3.08c1.35,0.39,2.69,1.05,3.82,1.88c4.93,3.63,7.49,8.6,7.8,14.67
		c0.16,3.15,0.03,6.31,0.03,9.47h0.01c0,2.58,0,5.17-0.01,7.75c0,0.86,0.01,1.72-0.07,2.58c-0.19,1.89-1.23,2.49-2.99,1.51
		c-4.5-2.52-8.95-5.14-13.41-7.74c-1.48-0.87-2.22-2.17-2.21-3.91C189.39,402.16,189.36,395.42,189.42,388.67z M158.5,371.77
		c0.23-6.76,5-9.21,10.52-5.34c4.93,3.45,7.89,8.25,8.09,14.43c0.11,3.3,0.02,6.6,0.02,9.89c0,3.01,0.01,6.02-0.01,9.03
		c0,0.72-0.06,1.44-0.17,2.14c-0.14,0.93-1,1.41-1.93,1.11c-0.55-0.18-1.09-0.39-1.58-0.67c-3.97-2.3-7.89-4.68-11.89-6.91
		c-2.1-1.17-3.15-2.78-3.13-5.19C158.46,384.1,158.29,377.93,158.5,371.77z M128.03,352.37c0.11-0.84,0.31-1.71,0.65-2.48
		c0.83-1.85,2.28-2.84,4.37-2.93c1.95-0.09,3.68,0.48,5.24,1.59c4.85,3.43,7.84,8.15,8.2,14c0.41,6.57,0.13,13.18,0.06,19.77
		c0,0.94-0.46,1.87-0.86,3.37c-1.59-0.66-2.68-0.98-3.65-1.53c-3.74-2.12-7.42-4.36-11.18-6.44c-2.08-1.16-3.16-2.83-3.22-5.17
		C127.48,365.82,127.17,359.08,128.03,352.37z M108.93,497.49h-0.05c0,2.44,0.08,4.88-0.02,7.31c-0.08,1.96-1.06,2.5-2.9,1.59
		c-1.8-0.89-3.51-1.95-5.25-2.95c-4.1-2.36-8.2-4.72-12.29-7.1c-4.26-2.48-7.15-6.1-8.92-10.69c-0.8-2.07-0.97-4.18-0.68-6.34
		c0.39-2.93,2.34-4.71,5.25-4.53c1.38,0.08,2.88,0.45,4.07,1.13c6.12,3.45,12.14,7.09,18.23,10.58c1.82,1.05,2.67,2.45,2.58,4.54
		C108.86,493.18,108.93,495.34,108.93,497.49z M108.96,457.83c-0.1,2.15-0.02,4.31-0.02,6.46h-0.04c0,2.3,0.07,4.6-0.03,6.89
		c-0.09,2.2-1.08,2.69-3.13,1.69c-0.65-0.32-1.26-0.69-1.88-1.05c-5.34-3.1-10.65-6.23-16.01-9.29c-4.36-2.49-7.08-6.26-8.51-10.93
		c-0.53-1.73-0.67-3.69-0.51-5.5c0.34-3.6,3.32-5.56,6.76-4.62c1.24,0.34,2.46,0.85,3.57,1.49c5.72,3.28,11.38,6.69,17.13,9.93
		C108.32,454.04,109.07,455.6,108.96,457.83z M108.92,437.29c-0.01,0.82-0.28,1.64-0.41,2.34c-1.81,0.78-2.98-0.3-4.18-0.98
		c-4.37-2.48-8.7-5.03-13.03-7.58c-1.74-1.01-3.55-1.94-5.14-3.15c-4.31-3.27-7-7.53-7.44-13.03c-0.07-0.85-0.02-1.73,0.1-2.58
		c0.42-2.99,3.61-5.44,6.67-4.26c1.2,0.47,2.45,0.85,3.56,1.48c5.37,3.05,10.7,6.17,16.05,9.26c0.37,0.22,0.72,0.48,1.1,0.67
		c1.98,1.04,2.84,2.61,2.78,4.9C108.86,428.66,108.96,432.98,108.92,437.29z M108.92,403.52c-0.01,0.95-0.31,1.9-0.53,3.15
		c-1.19-0.29-2.23-0.32-3.03-0.78c-6.22-3.59-12.44-7.18-18.56-10.94c-3.82-2.35-6.11-6-7.54-10.2c-0.65-1.93-0.89-3.92-0.47-5.95
		c0.64-3.1,2.78-4.72,5.91-4.27c1.24,0.17,2.53,0.61,3.62,1.23c6,3.39,11.94,6.91,17.92,10.33c1.94,1.12,2.81,2.64,2.74,4.93
		C108.86,395.18,108.98,399.35,108.92,403.52z M146.89,574.31c-0.39,3.62-3.79,6.3-7.86,4.65c-2.3-0.93-4.2-2.42-5.79-4.32
		c-2.93-3.52-4.75-7.52-4.83-12.14c-0.09-6.02-0.06-12.03-0.01-18.05c0.01-0.96,0.39-1.92,0.71-3.41c1.26,0.34,2.15,0.4,2.84,0.79
		c4.12,2.32,8.15,4.79,12.28,7.07c2.14,1.18,3.08,2.94,3.11,5.24C147.42,560.87,147.62,567.59,146.89,574.31z M177.74,589.87
		c0,0.72-0.06,1.44-0.18,2.15c-0.81,4.42-4.1,6.24-8.31,4.53c-1.05-0.43-2.08-1.03-2.94-1.76c-4.45-3.82-7.19-8.52-7.19-14.56
		c0-5.88-0.02-11.77,0.03-17.66c0.01-1.09,0.29-2.18,0.54-3.95c1.75,0.69,2.84,0.99,3.81,1.53c3.75,2.11,7.42,4.37,11.2,6.43
		c2.14,1.16,3.1,2.79,3.08,5.2C177.72,577.81,177.76,583.84,177.74,589.87z M208.19,598.77c0,3.16,0.03,6.32-0.02,9.48
		c-0.01,1-0.07,2.04-0.36,2.98c-0.87,2.83-3.58,4.32-6.43,3.6c-1.85-0.46-3.47-1.35-4.9-2.61c-4.18-3.71-6.68-8.34-6.9-13.9
		c-0.25-6.03-0.06-12.08-0.05-18.11c0-0.29,0.03-0.58,0.06-0.86c0.3-2.47,1.25-3.1,3.4-1.92c4.41,2.42,8.73,4.99,13.1,7.49
		c1.53,0.87,2.14,2.18,2.12,3.93C208.16,592.15,208.19,595.46,208.19,598.77z M239.05,625.45c0,0.99-0.19,2-0.46,2.96
		c-1,3.46-3.42,4.89-6.89,4.07c-0.82-0.2-1.67-0.51-2.37-0.97c-5.24-3.4-8.61-8.11-8.88-14.44c-0.27-6.45-0.07-12.92-0.02-19.38
		c0-0.95,0.32-1.9,0.54-3.08c1.05,0.18,1.97,0.11,2.64,0.49c4.25,2.4,8.43,4.93,12.67,7.35c1.94,1.1,2.86,2.66,2.84,4.9
		C239.07,613.38,239.11,619.42,239.05,625.45z M251.84,521.21c-0.43,22.72-0.44,45.44-0.51,68.16c0,1.43-0.05,2.91-0.45,4.26
		c-0.91,3.07-3.22,4.38-6.33,3.59c-1.5-0.38-2.97-1.07-4.32-1.85c-9.85-5.67-19.66-11.4-29.48-17.11
		c-17.65-10.26-35.31-20.51-52.96-30.77c-10.2-5.93-20.4-11.84-30.56-17.82c-6.34-3.72-9.59-9.26-9.58-16.7
		c0.02-20.28,0.01-40.56,0.01-60.84h0.03c0-20.14,0-40.28,0.01-60.42c0-1.44-0.07-2.9,0.15-4.31c0.6-3.94,3.91-5.85,7.65-4.49
		c0.94,0.34,1.83,0.85,2.69,1.35c20.03,11.61,40.05,23.25,60.08,34.86c17.29,10.02,34.6,20.01,51.9,30.03
		c2.61,1.51,5.24,2.97,7.17,5.43c3.13,3.99,4.75,8.42,4.72,13.55C251.94,485.82,252.18,503.52,251.84,521.21z M289.25,602.26
		c-0.23,4.07-3.23,6.15-7.19,5.05c-1.22-0.34-2.38-0.99-3.5-1.64c-5.59-3.21-11.16-6.49-16.76-9.71c-1.73-1-3.02-2.31-3-4.39
		c0.05-4.72,0.19-9.45,0.34-14.18c0.02-0.54,0.31-1.07,0.63-2.16c1.31,0.45,2.31,0.63,3.13,1.1c5.61,3.21,11.2,6.45,16.77,9.72
		c4.52,2.66,7.67,6.46,9.07,11.55C289.15,599.09,289.34,600.71,289.25,602.26z M289.44,569.51c-0.81,4-3.87,5.8-7.65,4.41
		c-1.21-0.45-2.37-1.04-3.48-1.68c-5.35-3.08-10.64-6.25-16.03-9.25c-2.28-1.27-3.34-2.93-3.13-5.55c0.15-1.85,0.03-3.73,0.03-5.59
		h0.06c0-2.44-0.08-4.89,0.02-7.32c0.09-2.15,1.14-2.7,3.17-1.7c1.41,0.7,2.76,1.53,4.12,2.32c4.6,2.65,9.19,5.32,13.79,7.96
		c4.19,2.4,6.86,6.03,8.45,10.49C289.47,565.5,289.85,567.47,289.44,569.51z M289.31,537.17c-0.91,2.83-2.99,4.21-5.92,3.74
		c-1.25-0.2-2.53-0.64-3.63-1.27c-5.86-3.32-11.68-6.74-17.5-10.13c-0.5-0.29-0.97-0.62-1.44-0.95c-1.01-0.7-1.56-1.68-1.56-2.91
		c0.02-5.02-0.01-10.05,0.09-15.07c0.04-1.65,1.17-2.18,2.71-1.48c0.52,0.23,1.02,0.53,1.51,0.82c5.84,3.37,11.74,6.65,17.5,10.15
		c5.09,3.11,7.77,7.89,8.66,13.73c0.05,0.28,0.05,0.57,0.1,1.12C289.7,535.51,289.57,536.36,289.31,537.17z M289.64,503.57
		c-0.91,2.75-3.06,4.25-5.92,3.88c-1.25-0.17-2.54-0.6-3.63-1.22c-5.88-3.33-11.66-6.82-17.55-10.12c-2.43-1.36-3.53-3.17-3.31-5.94
		c0.14-1.86,0.03-3.74,0.03-5.6h0.11c0-2.45-0.1-4.9,0.03-7.33c0.1-1.9,1.24-2.49,2.98-1.58c2.29,1.2,4.51,2.55,6.74,3.84
		c3.86,2.24,7.78,4.37,11.54,6.75c4.69,2.96,7.78,7.17,9.03,12.64C290.05,500.46,290.16,502.01,289.64,503.57z"/>
	<path class="st1" d="M108.92,403.52c-0.01,0.95-0.31,1.9-0.53,3.15c-1.19-0.29-2.23-0.32-3.03-0.78
		c-6.22-3.59-12.44-7.18-18.56-10.94c-3.82-2.35-6.11-6-7.54-10.2c-0.65-1.93-0.89-3.92-0.47-5.95c0.64-3.1,2.78-4.72,5.91-4.27
		c1.24,0.17,2.53,0.61,3.62,1.23c6,3.39,11.94,6.91,17.92,10.33c1.94,1.12,2.81,2.64,2.74,4.93
		C108.86,395.18,108.98,399.35,108.92,403.52z"/>
	<path class="st1" d="M108.92,437.29c-0.01,0.82-0.28,1.64-0.41,2.34c-1.81,0.78-2.98-0.3-4.18-0.98c-4.37-2.48-8.7-5.03-13.03-7.58
		c-1.74-1.01-3.55-1.94-5.14-3.15c-4.31-3.27-7-7.53-7.44-13.03c-0.07-0.85-0.02-1.73,0.1-2.58c0.42-2.99,3.61-5.44,6.67-4.26
		c1.2,0.47,2.45,0.85,3.56,1.48c5.37,3.05,10.7,6.17,16.05,9.26c0.37,0.22,0.72,0.48,1.1,0.67c1.98,1.04,2.84,2.61,2.78,4.9
		C108.86,428.66,108.96,432.98,108.92,437.29z"/>
	<path class="st1" d="M108.96,457.83c-0.1,2.15-0.02,4.31-0.02,6.46h-0.04c0,2.3,0.07,4.6-0.03,6.89c-0.09,2.2-1.08,2.69-3.13,1.69
		c-0.65-0.32-1.26-0.69-1.88-1.05c-5.34-3.1-10.65-6.23-16.01-9.29c-4.36-2.49-7.08-6.26-8.51-10.93c-0.53-1.73-0.67-3.69-0.51-5.5
		c0.34-3.6,3.32-5.56,6.76-4.62c1.24,0.34,2.46,0.85,3.57,1.49c5.72,3.28,11.38,6.69,17.13,9.93
		C108.32,454.04,109.07,455.6,108.96,457.83z"/>
	<path class="st1" d="M108.93,497.49h-0.05c0,2.44,0.08,4.88-0.02,7.31c-0.08,1.96-1.06,2.5-2.9,1.59c-1.8-0.89-3.51-1.95-5.25-2.95
		c-4.1-2.36-8.2-4.72-12.29-7.1c-4.26-2.48-7.15-6.1-8.92-10.69c-0.8-2.07-0.97-4.18-0.68-6.34c0.39-2.93,2.34-4.71,5.25-4.53
		c1.38,0.08,2.88,0.45,4.07,1.13c6.12,3.45,12.14,7.09,18.23,10.58c1.82,1.05,2.67,2.45,2.58,4.54
		C108.86,493.18,108.93,495.34,108.93,497.49z"/>
	<path class="st1" d="M146.89,574.31c-0.39,3.62-3.79,6.3-7.86,4.65c-2.3-0.93-4.2-2.42-5.79-4.32c-2.93-3.52-4.75-7.52-4.83-12.14
		c-0.09-6.02-0.06-12.03-0.01-18.05c0.01-0.96,0.39-1.92,0.71-3.41c1.26,0.34,2.15,0.4,2.84,0.79c4.12,2.32,8.15,4.79,12.28,7.07
		c2.14,1.18,3.08,2.94,3.11,5.24C147.42,560.87,147.62,567.59,146.89,574.31z"/>
	<path class="st1" d="M177.78,571.78c-0.06,6.03-0.02,12.06-0.04,18.09c0,0.72-0.06,1.44-0.18,2.15c-0.81,4.42-4.1,6.24-8.31,4.53
		c-1.05-0.43-2.08-1.03-2.94-1.76c-4.45-3.82-7.19-8.52-7.19-14.56c0-5.88-0.02-11.77,0.03-17.66c0.01-1.09,0.29-2.18,0.54-3.95
		c1.75,0.69,2.84,0.99,3.81,1.53c3.75,2.11,7.42,4.37,11.2,6.43C176.84,567.74,177.8,569.37,177.78,571.78z"/>
	<path class="st1" d="M208.19,598.77c0,3.16,0.03,6.32-0.02,9.48c-0.01,1-0.07,2.04-0.36,2.98c-0.87,2.83-3.58,4.32-6.43,3.6
		c-1.85-0.46-3.47-1.35-4.9-2.61c-4.18-3.71-6.68-8.34-6.9-13.9c-0.25-6.03-0.06-12.08-0.05-18.11c0-0.29,0.03-0.58,0.06-0.86
		c0.3-2.47,1.25-3.1,3.4-1.92c4.41,2.42,8.73,4.99,13.1,7.49c1.53,0.87,2.14,2.18,2.12,3.93
		C208.16,592.15,208.19,595.46,208.19,598.77z"/>
	<path class="st1" d="M239.12,607.35c-0.05,6.03-0.01,12.07-0.07,18.1c0,0.99-0.19,2-0.46,2.96c-1,3.46-3.42,4.89-6.89,4.07
		c-0.82-0.2-1.67-0.51-2.37-0.97c-5.24-3.4-8.61-8.11-8.88-14.44c-0.27-6.45-0.07-12.92-0.02-19.38c0-0.95,0.32-1.9,0.54-3.08
		c1.05,0.18,1.97,0.11,2.64,0.49c4.25,2.4,8.43,4.93,12.67,7.35C238.22,603.55,239.14,605.11,239.12,607.35z"/>
	<path class="st1" d="M289.25,602.26c-0.23,4.07-3.23,6.15-7.19,5.05c-1.22-0.34-2.38-0.99-3.5-1.64
		c-5.59-3.21-11.16-6.49-16.76-9.71c-1.73-1-3.02-2.31-3-4.39c0.05-4.72,0.19-9.45,0.34-14.18c0.02-0.54,0.31-1.07,0.63-2.16
		c1.31,0.45,2.31,0.63,3.13,1.1c5.61,3.21,11.2,6.45,16.77,9.72c4.52,2.66,7.67,6.46,9.07,11.55
		C289.15,599.09,289.34,600.71,289.25,602.26z"/>
	<path class="st1" d="M289.44,569.51c-0.81,4-3.87,5.8-7.65,4.41c-1.21-0.45-2.37-1.04-3.48-1.68c-5.35-3.08-10.64-6.25-16.03-9.25
		c-2.28-1.27-3.34-2.93-3.13-5.55c0.15-1.85,0.03-3.73,0.03-5.59h0.06c0-2.44-0.08-4.89,0.02-7.32c0.09-2.15,1.14-2.7,3.17-1.7
		c1.41,0.7,2.76,1.53,4.12,2.32c4.6,2.65,9.19,5.32,13.79,7.96c4.19,2.4,6.86,6.03,8.45,10.49
		C289.47,565.5,289.85,567.47,289.44,569.51z"/>
	<path class="st1" d="M289.83,534.92c-0.13,0.59-0.26,1.44-0.52,2.25c-0.91,2.83-2.99,4.21-5.92,3.74c-1.25-0.2-2.53-0.64-3.63-1.27
		c-5.86-3.32-11.68-6.74-17.5-10.13c-0.5-0.29-0.97-0.62-1.44-0.95c-1.01-0.7-1.56-1.68-1.56-2.91c0.02-5.02-0.01-10.05,0.09-15.07
		c0.04-1.65,1.17-2.18,2.71-1.48c0.52,0.23,1.02,0.53,1.51,0.82c5.84,3.37,11.74,6.65,17.5,10.15c5.09,3.11,7.77,7.89,8.66,13.73
		C289.78,534.08,289.78,534.37,289.83,534.92z"/>
	<path class="st1" d="M289.64,503.57c-0.91,2.75-3.06,4.25-5.92,3.88c-1.25-0.17-2.54-0.6-3.63-1.22
		c-5.88-3.33-11.66-6.82-17.55-10.12c-2.43-1.36-3.53-3.17-3.31-5.94c0.14-1.86,0.03-3.74,0.03-5.6h0.11c0-2.45-0.1-4.9,0.03-7.33
		c0.1-1.9,1.24-2.49,2.98-1.58c2.29,1.2,4.51,2.55,6.74,3.84c3.86,2.24,7.78,4.37,11.54,6.75c4.69,2.96,7.78,7.17,9.03,12.64
		C290.05,500.46,290.16,502.01,289.64,503.57z"/>
	<path class="st1" d="M238.85,428.18c-0.05,2.86-0.3,5.72-0.49,8.58c-0.04,0.55-0.28,1.09-0.57,2.21c-1.48-0.55-2.59-0.82-3.55-1.35
		c-3.75-2.11-7.42-4.35-11.18-6.45c-2.24-1.25-3.29-3.05-3.27-5.59c0.04-5.6-0.01-11.19,0.07-16.79c0.02-1.42,0.27-2.86,0.62-4.25
		c0.73-2.94,2.68-4.37,5.69-4c1.38,0.17,2.83,0.65,4,1.38c4.48,2.81,7.24,6.88,8.21,12.09C239.26,418.7,238.92,423.45,238.85,428.18
		z"/>
	<path class="st1" d="M208.05,408.72h0.01c0,2.58,0,5.17-0.01,7.75c0,0.86,0.01,1.72-0.07,2.58c-0.19,1.89-1.23,2.49-2.99,1.51
		c-4.5-2.52-8.95-5.14-13.41-7.74c-1.48-0.87-2.22-2.17-2.21-3.91c0.02-6.75-0.01-13.49,0.05-20.24c0.01-0.97,0.32-1.98,0.7-2.89
		c1.11-2.67,3.5-3.89,6.28-3.08c1.35,0.39,2.69,1.05,3.82,1.88c4.93,3.63,7.49,8.6,7.8,14.67
		C208.18,402.4,208.05,405.56,208.05,408.72z"/>
	<path class="st1" d="M177.13,390.75c0,3.01,0.01,6.02-0.01,9.03c0,0.72-0.06,1.44-0.17,2.14c-0.14,0.93-1,1.41-1.93,1.11
		c-0.55-0.18-1.09-0.39-1.58-0.67c-3.97-2.3-7.89-4.68-11.89-6.91c-2.1-1.17-3.15-2.78-3.13-5.19c0.04-6.16-0.13-12.33,0.08-18.49
		c0.23-6.76,5-9.21,10.52-5.34c4.93,3.45,7.89,8.25,8.09,14.43C177.22,384.16,177.13,387.46,177.13,390.75z"/>
	<path class="st1" d="M146.55,382.32c0,0.94-0.46,1.87-0.86,3.37c-1.59-0.66-2.68-0.98-3.65-1.53c-3.74-2.12-7.42-4.36-11.18-6.44
		c-2.08-1.16-3.16-2.83-3.22-5.17c-0.16-6.73-0.47-13.47,0.39-20.18c0.11-0.84,0.31-1.71,0.65-2.48c0.83-1.85,2.28-2.84,4.37-2.93
		c1.95-0.09,3.68,0.48,5.24,1.59c4.85,3.43,7.84,8.15,8.2,14C146.9,369.12,146.62,375.73,146.55,382.32z"/>
	<path class="st1" d="M252.06,468.13c0.03-5.13-1.59-9.56-4.72-13.55c-1.93-2.46-4.56-3.92-7.17-5.43
		c-17.3-10.02-34.61-20.01-51.9-30.03c-20.03-11.61-40.05-23.25-60.08-34.86c-0.86-0.5-1.75-1.01-2.69-1.35
		c-3.74-1.36-7.05,0.55-7.65,4.49c-0.22,1.41-0.15,2.87-0.15,4.31c-0.01,20.14-0.01,40.28-0.01,60.42h-0.03
		c0,20.28,0.01,40.56-0.01,60.84c-0.01,7.44,3.24,12.98,9.58,16.7c10.16,5.98,20.36,11.89,30.56,17.82
		c17.65,10.26,35.31,20.51,52.96,30.77c9.82,5.71,19.63,11.44,29.48,17.11c1.35,0.78,2.82,1.47,4.32,1.85
		c3.11,0.79,5.42-0.52,6.33-3.59c0.4-1.35,0.45-2.83,0.45-4.26c0.07-22.72,0.08-45.44,0.51-68.16
		C252.18,503.52,251.94,485.82,252.06,468.13z M224.78,475.98c-0.03,25.01-0.06,50.02-0.1,75.03c-0.01,1.26-0.12,2.52-0.21,4.43
		c-1.43-0.68-2.22-0.99-2.95-1.41c-19.88-11.56-39.74-23.14-59.61-34.7c-4.34-2.53-8.66-5.11-13.07-7.53
		c-2.01-1.1-2.82-2.54-2.8-4.83c0.08-11.5-0.31-23.02,0.14-34.5c0.54-13.51,0.18-27.01,0.41-40.51c0.03-1.68-0.33-3.44,0.65-5.07
		c1.65-0.36,2.78,0.68,3.97,1.36c5.11,2.93,10.17,5.95,15.27,8.91c17.9,10.38,35.8,20.75,53.71,31.12
		C224.76,470.92,224.79,470.91,224.78,475.98z"/>
	<path class="st0" d="M666.61,266.5c0-3.49-0.39-6.9-1.01-10.28c-0.6-3.3-2.06-6.28-4.46-8.71c-2.22-2.23-4.84-3.5-8.07-3.48
		c-2.48,0.01-4.91,0.24-7.18,1.23c-2.76,1.2-5.56,2.36-8.17,3.85c-22.21,12.71-44.4,25.46-66.57,38.25
		c-33.13,19.1-66.24,38.25-99.36,57.36c-26.66,15.38-53.32,30.73-79.99,46.06c-4.04,2.32-7.65,5.11-10.61,8.71
		c-3.94,4.78-7.54,9.82-10.34,15.36c-4.22,8.31-6.58,17-6.53,26.49c0.17,28.76,0,57.53-0.03,86.3c0,1,0,2.01-0.02,3.02
		c-0.35,21.41,0.18,42.84-0.65,64.26c-0.25,6.46-0.03,12.94-0.04,19.41c-0.05,24.6-0.11,49.19-0.15,73.79
		c0,5.03-0.08,10.07,0.14,15.1c0.22,5.08,1.43,9.95,4.39,14.23c2.19,3.15,5.2,4.89,9.06,5.03c2.45,0.09,4.86-0.04,7.27-0.69
		c4.19-1.13,8.2-2.66,11.94-4.86c12.04-7.05,24.05-14.13,36.07-21.21c31.35-18.45,62.71-36.88,94.05-55.35
		c23.78-14.01,47.54-28.06,71.32-42.09c16.1-9.5,32.19-19.01,48.32-28.45c2.79-1.63,5.21-3.58,7-6.27c2.31-3.47,4.6-6.95,6.83-10.47
		c2.98-4.67,4.84-9.81,5.66-15.26c0.61-4.11,1.04-8.29,1.05-12.43c0.07-43.15,0.05-86.3,0.05-129.45
		C666.58,352.8,666.56,309.65,666.61,266.5z M605.61,457.52c-1.2,2.48-1.65,4.94-1.09,7.51c0.97,4.49,0.17,8.9-0.45,13.29
		c-1.14,8.07-4.15,15.53-8.21,22.54c-3.74,6.47-7.59,12.88-11.56,19.21c-5.6,8.94-12.27,17.02-20.23,23.99
		c-0.53,0.47-1.03,0.97-1.83,1.72c0.51,1.36,0.91,2.43,1.29,3.5c0.73,2.03,1.57,4.03,2.12,6.11c1.26,4.76,1,9.38-1.58,13.74
		c-3.54,5.97-7.54,11.56-12.65,16.3c-3.3,3.07-6.92,5.6-11.34,6.83c-3.91,1.09-6.14,0.34-8.67-2.89c-1.24-1.57-2.53-3.12-3.88-4.6
		c-2.34-2.59-5.36-3.76-8.8-3.99c-1.57-0.11-3.2-0.12-4.69-0.55c-3.68-1.08-6.74-3.08-8.97-6.34c-2.31-3.37-3.79-7.09-4.94-10.95
		c-1.15-3.86-2.14-7.76-3.23-11.63c-0.31-1.09-0.7-2.16-1.13-3.46c-1.21,0-2.34-0.07-3.45,0.02c-3.88,0.28-7.75,0.49-11.57-0.53
		c-1.36-0.36-2.57-0.01-3.67,0.76c-0.94,0.67-1.83,1.39-2.72,2.12c-3.99,3.22-8.63,5.12-13.46,6.62c-0.94,0.3-2,0.44-2.98,0.37
		c-2.7-0.18-5.04,0.58-7.33,2c-3.2,1.99-6.78,3.04-10.51,3.7c-4.59,0.81-8.18-0.78-11.06-4.25c-1.96-2.37-3.18-5.13-3.84-8.12
		c-1.05-4.77-1.93-9.56-1.71-14.51c0.2-4.6-0.18-9.17-0.66-13.76c-1.25-12.14,0.6-23.8,6.31-34.71c0.67-1.27,1.26-2.59,2-3.82
		c1.58-2.62,2.49-5.48,3.25-8.41c1.59-6.13,3.52-12.14,5.88-18.02c3.69-9.19,9.1-17.29,15.6-24.66c2.68-3.04,5.19-6.1,7.09-9.7
		c2.23-4.2,4.95-8.11,8.56-11.29c1.07-0.95,2.14-1.96,3.37-2.66c2.32-1.33,4.01-3.18,5.49-5.36c2.61-3.8,5.46-7.42,9.39-9.99
		c0.12-0.08,0.22-0.21,0.34-0.26c3.92-1.5,6.34-4.83,9.23-7.57c3.83-3.63,8.27-6.22,13.36-7.6c2.58-0.7,4.65-1.96,6.56-3.85
		c2.86-2.82,5.78-5.65,9.04-7.97c6.69-4.73,14.17-6.94,22.41-5.38c1.94,0.36,3.89,1.09,5.66,2c2.47,1.27,4.74,1.53,7.39,0.38
		c5.84-2.55,10.95-0.93,15.38,3.32c1.23,1.19,2.31,2.54,3.5,3.85c1.16,0.1,2.3,0.18,3.44,0.29c5.19,0.51,8.67,3.5,11.22,7.8
		c0.44,0.73,0.77,1.54,1.05,2.36c0.91,2.68,2.4,4.68,5.06,6.07c3.34,1.75,5.06,4.97,6.06,8.56c1.37,4.96,1.03,9.97,0.61,15
		c-0.06,0.71-0.2,1.42-0.33,2.13c-0.49,2.57-0.38,5.11,0.04,7.7c0.57,3.55,0.93,7.13,1.17,10.71
		C611.57,440.44,609.61,449.23,605.61,457.52z"/>
	<path class="st1" d="M610.94,431.19c-0.24-3.58-0.6-7.16-1.17-10.71c-0.42-2.59-0.53-5.13-0.04-7.7c0.13-0.71,0.27-1.42,0.33-2.13
		c0.42-5.03,0.76-10.04-0.61-15c-1-3.59-2.72-6.81-6.06-8.56c-2.66-1.39-4.15-3.39-5.06-6.07c-0.28-0.82-0.61-1.63-1.05-2.36
		c-2.55-4.3-6.03-7.29-11.22-7.8c-1.14-0.11-2.28-0.19-3.44-0.29c-1.19-1.31-2.27-2.66-3.5-3.85c-4.43-4.25-9.54-5.87-15.38-3.32
		c-2.65,1.15-4.92,0.89-7.39-0.38c-1.77-0.91-3.72-1.64-5.66-2c-8.24-1.56-15.72,0.65-22.41,5.38c-3.26,2.32-6.18,5.15-9.04,7.97
		c-1.91,1.89-3.98,3.15-6.56,3.85c-5.09,1.38-9.53,3.97-13.36,7.6c-2.89,2.74-5.31,6.07-9.23,7.57c-0.12,0.05-0.22,0.18-0.34,0.26
		c-3.93,2.57-6.78,6.19-9.39,9.99c-1.48,2.18-3.17,4.03-5.49,5.36c-1.23,0.7-2.3,1.71-3.37,2.66c-3.61,3.18-6.33,7.09-8.56,11.29
		c-1.9,3.6-4.41,6.66-7.09,9.7c-6.5,7.37-11.91,15.47-15.6,24.66c-2.36,5.88-4.29,11.89-5.88,18.02c-0.76,2.93-1.67,5.79-3.25,8.41
		c-0.74,1.23-1.33,2.55-2,3.82c-5.71,10.91-7.56,22.57-6.31,34.71c0.48,4.59,0.86,9.16,0.66,13.76c-0.22,4.95,0.66,9.74,1.71,14.51
		c0.66,2.99,1.88,5.75,3.84,8.12c2.88,3.47,6.47,5.06,11.06,4.25c3.73-0.66,7.31-1.71,10.51-3.7c2.29-1.42,4.63-2.18,7.33-2
		c0.98,0.07,2.04-0.07,2.98-0.37c4.83-1.5,9.47-3.4,13.46-6.62c0.89-0.73,1.78-1.45,2.72-2.12c1.1-0.77,2.31-1.12,3.67-0.76
		c3.82,1.02,7.69,0.81,11.57,0.53c1.11-0.09,2.24-0.02,3.45-0.02c0.43,1.3,0.82,2.37,1.13,3.46c1.09,3.87,2.08,7.77,3.23,11.63
		c1.15,3.86,2.63,7.58,4.94,10.95c2.23,3.26,5.29,5.26,8.97,6.34c1.49,0.43,3.12,0.44,4.69,0.55c3.44,0.23,6.46,1.4,8.8,3.99
		c1.35,1.48,2.64,3.03,3.88,4.6c2.53,3.23,4.76,3.98,8.67,2.89c4.42-1.23,8.04-3.76,11.34-6.83c5.11-4.74,9.11-10.33,12.65-16.3
		c2.58-4.36,2.84-8.98,1.58-13.74c-0.55-2.08-1.39-4.08-2.12-6.11c-0.38-1.07-0.78-2.14-1.29-3.5c0.8-0.75,1.3-1.25,1.83-1.72
		c7.96-6.97,14.63-15.05,20.23-23.99c3.97-6.33,7.82-12.74,11.56-19.21c4.06-7.01,7.07-14.47,8.21-22.54
		c0.62-4.39,1.42-8.8,0.45-13.29c-0.56-2.57-0.11-5.03,1.09-7.51C609.61,449.23,611.57,440.44,610.94,431.19z M550.86,568.13
		c-2.03,2.03-3.82,4.32-6.51,5.57c-0.63,0.3-1.32,0.49-2.36,0.87c-0.93-1.15-1.64-2.04-2.36-2.91c-4.43-5.36-9.9-8.72-17.05-8.72
		c-4.35,0-6.92-2.47-8.55-6.11c-2.18-4.87-3.42-10.03-4.42-15.28c1.47-2.08,3.38-3.12,5.82-3.33c1.42-0.12,2.83-0.45,4.26-0.59
		c5.09-0.5,9.3-2.82,12.96-6.24c1.66-1.56,3.25-3.19,4.86-4.78c1.14,0.81,0.67,1.93,0.91,2.84c0.25,0.97,0.39,1.97,0.47,2.97
		c0.45,5.48,2.13,10.38,6.3,14.23c0.82,0.75,1.53,1.76,1.96,2.78c1.7,4.12,3.21,8.31,4.9,12.43
		C553.05,564.27,552.72,566.27,550.86,568.13z M591.98,482.28c-0.71,2.18-1.45,4.37-2.47,6.42c-5.78,11.57-12.42,22.64-20.67,32.64
		c-1.91,2.32-4.08,4.44-6.29,6.47c-1.14,1.05-2.56,1.85-3.98,2.51c-2.18,1.01-3.81,0.51-5.24-1.48c-0.57-0.8-1.06-1.74-1.31-2.68
		c-1.46-5.35-1.75-10.75-0.41-16.16c0.24-0.95,0.64-1.91,1.19-2.72c2.17-3.2,4.49-6.3,6.64-9.52c1.02-1.54,2.17-2.54,4.13-2.62
		c3.95-0.16,7-2.35,9.86-4.79c1.19-1.02,2.3-2.18,3.25-3.43c1.87-2.44,4.15-4.27,6.85-5.75c2.26-1.22,4.27-2.88,6.4-4.32
		c0.55-0.37,1.16-0.65,2.02-1.12C592.79,478.15,592.63,480.25,591.98,482.28z M588.91,460.63c-2.1,1.71-4.36,3.25-7.05,4.44
		c-1.65-2.1-1.88-4.24-1.17-6.53c0.39-1.23,0.98-2.4,1.4-3.62c0.47-1.39,0.55-2.82,0.02-4.23c-0.82-2.18-3.03-3.01-4.85-1.6
		c-1.1,0.85-2.06,2.02-2.74,3.24c-2.51,4.46-4.09,9.18-3.57,14.42c0.14,1.43,0.13,2.87,0.26,4.31c0.33,3.77-1.45,5.95-5.21,6.29
		c-0.71,0.06-1.45,0.09-2.15-0.05c-3.85-0.76-6.36,1.24-8.29,4.15c-1.18,1.79-1.99,3.82-3.07,5.69c-1.29,2.23-2.63,4.44-4.08,6.57
		c-0.42,0.62-1.3,0.92-2.35,1.61c-0.29-1.32-0.64-2.23-0.68-3.16c-0.07-1.72,0.09-3.45,0.04-5.17c-0.04-1.53-0.62-2.84-2.16-3.42
		c-1.56-0.59-2.92,0.05-3.9,1.15c-0.93,1.04-1.78,2.28-2.27,3.58c-1.74,4.69-2.25,9.49-0.65,14.36c0.27,0.82,0.57,1.63,0.87,2.44
		c0.38,1,0.33,2.01-0.22,2.91c-2.35,3.8-4.77,7.56-8.79,9.88c-2.02,1.16-4.14,2.01-6.55,1.78c-1.13-0.11-1.96-0.73-2.03-1.87
		c-0.35-5.88-0.94-11.76,2.78-17.05c1.29-1.84,1.97-4.12,2.81-6.25c0.49-1.27,0.16-2.55-0.5-3.73c-1.14-2.02-3.32-2.42-5.09-0.88
		c-0.43,0.37-0.85,0.81-1.12,1.3c-2.05,3.62-4.27,7.17-6.02,10.93c-2.2,4.75-3.16,9.84-2.86,15.12c0.05,0.86-0.06,1.74,0.05,2.59
		c0.44,3.34-1.1,5.31-4,6.83c-5.23,2.74-10.62,4.33-16.56,3.51c-0.71-0.1-1.43-0.21-2.11-0.42c-1.23-0.39-1.87-1.3-1.94-2.56
		c-0.1-1.65,0.36-3.16,1.3-4.48c1.07-1.52,2.25-2.98,3.42-4.43c1.71-2.11,2.52-4.48,2.26-7.21c-0.14-1.37-0.61-2.53-1.95-3.1
		c-1.38-0.59-2.6-0.05-3.58,0.84c-3.31,3.03-6.25,6.36-8.01,10.57c-1.28,3.06-2.39,6.18-2.78,9.49c-0.34,2.97-1.74,5.07-4.47,6.36
		c-1.42,0.67-2.72,1.61-4.11,2.36c-2.21,1.2-4.57,1.83-7.07,1.31c-2.6-0.55-4.79,0.18-6.91,1.6c-1.67,1.12-3.44,2.09-5.17,3.13
		c-1.66,0.99-3.48,1.26-5.39,1.22c-2.27-0.04-3.84-1.17-4.71-3.18c-0.5-1.17-0.98-2.46-1.02-3.71c-0.16-4.16-0.21-8.34-0.11-12.5
		c0.06-2.44,1.01-3.28,3.44-3.59c0.71-0.09,1.43-0.12,2.15-0.09c2.43,0.09,4.15-1.15,5.31-3.1c0.8-1.33,1.47-2.82,1.82-4.34
		c0.73-3.12-0.97-5.41-4.13-5.78c-2.02-0.24-4.01-0.1-5.94,0.67c-0.79,0.32-1.65,0.71-2.45,0.67c-0.55-0.02-1.08-0.72-1.6-1.14
		c-0.08-0.08-0.11-0.28-0.09-0.41c0.44-4.56,0.42-9.22,2.66-13.42c0.2-0.38,0.37-0.85,0.7-1.07c0.56-0.38,1.2-0.69,1.86-0.86
		c0.37-0.09,0.85,0.11,1.25,0.25c5.64,1.99,10.39-0.2,15.01-3.12c4.18-2.64,7.72-5.95,10.93-9.68c2.25-2.62,4.77-4.97,7.91-6.58
		c2.24-1.16,4.36-1.34,6.5,0.14c0.35,0.24,0.72,0.48,1.1,0.67c2,0.96,3.58,0.71,5.11-0.8c0.2-0.2,0.39-0.42,0.56-0.65
		c2.03-2.67,3.28-5.69,1.69-8.82c-1.72-3.36-5-4.65-8.69-4.58c-2.01,0.04-3.98,0.58-5.78,1.58c-1.86,1.04-3.74,2.06-5.49,3.02
		c-1.09-0.42-0.94-1.22-0.99-1.9c-0.08-1.29,0-2.61-0.23-3.87c-0.43-2.36-2.47-3.41-4.51-2.25c-1.08,0.62-2.09,1.54-2.81,2.56
		c-1.27,1.79-1.81,3.88-1.79,6.11c0.02,2.3-0.06,4.6,0.01,6.9c0.07,2.23-0.82,3.92-2.66,5.09c-1.69,1.08-3.43,2.09-5.19,3.06
		c-1.45,0.8-3.05,0.8-4.63,0.54c-1.69-0.27-2.51-1.39-2.06-3.09c1.12-4.31,2.2-8.64,3.6-12.87c2.65-8.05,6.98-15.14,13.06-21.07
		c3.65-3.56,6.54-7.57,8.74-12.18c0.91-1.91,2.38-3.57,3.68-5.27c0.4-0.52,1.11-0.8,1.79-1.26c1.65,1.53,2.5,3.37,3.28,5.18
		c0.85,1.99,0.39,3.96-0.85,5.72c-1.09,1.52-2.24,2.99-3.32,4.52c-1.29,1.83-1.82,3.87-1.65,6.12c0.11,1.35,0.44,2.59,1.73,3.26
		c1.52,0.78,2.88,0.14,3.93-0.89c1.43-1.4,2.84-2.88,3.93-4.54c1.44-2.18,3.1-3.27,5.82-3.73c5.16-0.86,8.8-4,10.42-9.17
		c0.55-1.76,0.41-3.41-0.77-4.89c-0.89-1.12-2.11-1.56-3.45-1.12c-0.67,0.22-1.28,0.63-1.93,0.93c-0.52,0.23-1.06,0.43-1.81,0.73
		c-0.46-0.47-1.11-0.87-1.38-1.44c-1.43-2.98-2.76-6-4.33-9.46c1.27-3.58,3.36-6.87,7.67-8.07c2.09-0.58,3.44-1.94,4.78-3.48
		c1.88-2.17,3.77-4.35,5.83-6.34c1.66-1.61,3.63-2.81,6.36-2.21c0.11,0.9,0.31,1.73,0.3,2.57c-0.02,7.09,1.29,14,2.72,20.91
		c1.48,7.15-0.08,13.43-5.96,18.15c-2,1.61-3.45,3.49-4.06,5.92c-0.31,1.2-0.38,2.59-0.1,3.79c0.52,2.22,2.7,3.13,4.75,2.14
		c0.89-0.44,1.7-1.07,2.47-1.7c3.97-3.27,6.8-7.4,8.97-12c1.84-3.91,3.44-7.94,3.87-12.28c0.19-1.92,0.99-3.12,2.63-4.12
		c3.24-1.95,4.61-5.01,4.41-8.75c-0.14-2.51-1.43-3.81-3.9-3.4c-4.2,0.69-4.95-0.31-5.61-4.35c-0.51-3.13-0.93-6.24-0.89-9.42
		c0.02-1.66,0.48-3.06,1.54-4.35c3.83-4.63,8.33-8.41,13.97-10.53c5.04-1.9,9.91-0.8,14.44,1.9c1.21,0.71,1.13,1.85,0.77,3.05
		c-1.43,4.72-3.53,9.12-6.41,13.12c-1.36,1.9-2.58,3.84-2.84,6.2c-0.1,0.96-0.03,2.04,0.31,2.92c0.84,2.15,3.17,2.83,4.93,1.35
		c1.31-1.09,2.44-2.44,3.44-3.83c3.8-5.3,6.57-11.13,8.6-17.31c0.36-1.1,0.69-2.2,1.09-3.28c0.55-1.51,1.71-2.3,3.28-2.37
		c0.99-0.05,2.03-0.07,2.99,0.15c2.99,0.69,4.79,3.17,4.04,6.1c-1.33,5.14-2.7,10.31-6.03,14.5c-0.39,0.2-0.64,0.43-0.9,0.44
		c-1.87,0.08-3.73,0.06-5.05,1.81c-1.59,2.12-2.77,4.36-2.56,7.13c0.2,2.6,1.85,4.24,4.46,4.26c2.42,0.02,4.48-0.9,6.22-2.56
		c1.02-0.98,2.03-1.96,3.29-3.17c0.88,1.1,1.56,1.97,2.26,2.82c1.89,2.29,3.63,2.45,5.89,0.55c2.64-2.22,3.65-6.6,2.25-9.86
		c-0.28-0.66-0.65-1.28-1-1.91c-1.64-2.93-1.61-6.08-1.11-9.24c0.4-2.51,2.92-3.71,5.26-2.64c1.67,0.77,2.75,2.1,3.31,3.8
		c0.49,1.5,0.87,3.04,1.18,4.59c0.53,2.62,1.81,4.5,4.53,5.2c0.55,0.14,1.09,0.38,1.6,0.62c2.13,1.01,3.39,2.61,3.4,5.05
		c0.01,1.58-0.06,3.17,0.03,4.75c0.14,2.71-1.01,4.7-3.22,6.17c-2.53,1.68-5.14,3.05-8.28,3.37c-4.42,0.45-7.87,6.09-6.51,10.3
		c0.53,1.64,2.04,2.85,3.93,2.82c1.27-0.02,2.6-0.24,3.79-0.69c2.28-0.85,4.48-1.92,6.71-2.93c0.76-0.34,1.5-0.75,2.55-1.27
		c0.46,0.82,0.8,1.16,0.85,1.55c0.31,2.42,0.77,4.84,0.81,7.27C598.51,447.89,595.64,455.16,588.91,460.63z"/>
	<path class="st0" d="M397.28,199.34c-1.09,1.34-2.04,2.81-3.22,4.05c-4.11,4.28-8.67,8-14.05,10.58
		c-7.16,3.44-14.64,5.95-22.4,7.65c-2.01,0.43-3.96,0.27-5.98-0.13c-4.22-0.85-8.47-1.59-12.73-2.19c-1.77-0.24-3.35-0.75-4.79-1.75
		c-5.24-3.63-10.12-7.67-13.52-13.14c-3.5-5.66-4.87-11.93-4.5-18.56c0.11-2.05,1.16-3.33,3.09-4.25c2.71-1.29,5.3-2.88,7.82-4.52
		c1.26-0.81,2.51-1.33,3.99-1.43c2.86-0.22,5.72-0.48,8.88-0.74c5.74,0.51,11.74,1.19,17.76,1.54c6.38,0.37,12.46,2.05,18.56,3.69
		c4.88,1.32,9.53,3.21,14.09,5.36c1.92,0.9,3.25,2.15,4.06,4.19c0.78,1.99,1.97,3.83,3.06,5.68
		C398.22,196.76,398.34,198.04,397.28,199.34z"/>
	<path class="st0" d="M224.78,475.98c-0.03,25.01-0.06,50.02-0.1,75.03c-0.01,1.26-0.12,2.52-0.21,4.43
		c-1.43-0.68-2.22-0.99-2.95-1.41c-19.88-11.56-39.74-23.14-59.61-34.7c-4.34-2.53-8.66-5.11-13.07-7.53
		c-2.01-1.1-2.82-2.54-2.8-4.83c0.08-11.5-0.31-23.02,0.14-34.5c0.54-13.51,0.18-27.01,0.41-40.51c0.03-1.68-0.33-3.44,0.65-5.07
		c1.65-0.36,2.78,0.68,3.97,1.36c5.11,2.93,10.17,5.95,15.27,8.91c17.9,10.38,35.8,20.75,53.71,31.12
		C224.76,470.92,224.79,470.91,224.78,475.98z"/>
	<path class="st0" d="M597.56,432.09c-0.05-0.39-0.39-0.73-0.85-1.55c-1.05,0.52-1.79,0.93-2.55,1.27
		c-2.23,1.01-4.43,2.08-6.71,2.93c-1.19,0.45-2.52,0.67-3.79,0.69c-1.89,0.03-3.4-1.18-3.93-2.82c-1.36-4.21,2.09-9.85,6.51-10.3
		c3.14-0.32,5.75-1.69,8.28-3.37c2.21-1.47,3.36-3.46,3.22-6.17c-0.09-1.58-0.02-3.17-0.03-4.75c-0.01-2.44-1.27-4.04-3.4-5.05
		c-0.51-0.24-1.05-0.48-1.6-0.62c-2.72-0.7-4-2.58-4.53-5.2c-0.31-1.55-0.69-3.09-1.18-4.59c-0.56-1.7-1.64-3.03-3.31-3.8
		c-2.34-1.07-4.86,0.13-5.26,2.64c-0.5,3.16-0.53,6.31,1.11,9.24c0.35,0.63,0.72,1.25,1,1.91c1.4,3.26,0.39,7.64-2.25,9.86
		c-2.26,1.9-4,1.74-5.89-0.55c-0.7-0.85-1.38-1.72-2.26-2.82c-1.26,1.21-2.27,2.19-3.29,3.17c-1.74,1.66-3.8,2.58-6.22,2.56
		c-2.61-0.02-4.26-1.66-4.46-4.26c-0.21-2.77,0.97-5.01,2.56-7.13c1.32-1.75,3.18-1.73,5.05-1.81c0.26-0.01,0.51-0.24,0.9-0.44
		c3.33-4.19,4.7-9.36,6.03-14.5c0.75-2.93-1.05-5.41-4.04-6.1c-0.96-0.22-2-0.2-2.99-0.15c-1.57,0.07-2.73,0.86-3.28,2.37
		c-0.4,1.08-0.73,2.18-1.09,3.28c-2.03,6.18-4.8,12.01-8.6,17.31c-1,1.39-2.13,2.74-3.44,3.83c-1.76,1.48-4.09,0.8-4.93-1.35
		c-0.34-0.88-0.41-1.96-0.31-2.92c0.26-2.36,1.48-4.3,2.84-6.2c2.88-4,4.98-8.4,6.41-13.12c0.36-1.2,0.44-2.34-0.77-3.05
		c-4.53-2.7-9.4-3.8-14.44-1.9c-5.64,2.12-10.14,5.9-13.97,10.53c-1.06,1.29-1.52,2.69-1.54,4.35c-0.04,3.18,0.38,6.29,0.89,9.42
		c0.66,4.04,1.41,5.04,5.61,4.35c2.47-0.41,3.76,0.89,3.9,3.4c0.2,3.74-1.17,6.8-4.41,8.75c-1.64,1-2.44,2.2-2.63,4.12
		c-0.43,4.34-2.03,8.37-3.87,12.28c-2.17,4.6-5,8.73-8.97,12c-0.77,0.63-1.58,1.26-2.47,1.7c-2.05,0.99-4.23,0.08-4.75-2.14
		c-0.28-1.2-0.21-2.59,0.1-3.79c0.61-2.43,2.06-4.31,4.06-5.92c5.88-4.72,7.44-11,5.96-18.15c-1.43-6.91-2.74-13.82-2.72-20.91
		c0.01-0.84-0.19-1.67-0.3-2.57c-2.73-0.6-4.7,0.6-6.36,2.21c-2.06,1.99-3.95,4.17-5.83,6.34c-1.34,1.54-2.69,2.9-4.78,3.48
		c-4.31,1.2-6.4,4.49-7.67,8.07c1.57,3.46,2.9,6.48,4.33,9.46c0.27,0.57,0.92,0.97,1.38,1.44c0.75-0.3,1.29-0.5,1.81-0.73
		c0.65-0.3,1.26-0.71,1.93-0.93c1.34-0.44,2.56,0,3.45,1.12c1.18,1.48,1.32,3.13,0.77,4.89c-1.62,5.17-5.26,8.31-10.42,9.17
		c-2.72,0.46-4.38,1.55-5.82,3.73c-1.09,1.66-2.5,3.14-3.93,4.54c-1.05,1.03-2.41,1.67-3.93,0.89c-1.29-0.67-1.62-1.91-1.73-3.26
		c-0.17-2.25,0.36-4.29,1.65-6.12c1.08-1.53,2.23-3,3.32-4.52c1.24-1.76,1.7-3.73,0.85-5.72c-0.78-1.81-1.63-3.65-3.28-5.18
		c-0.68,0.46-1.39,0.74-1.79,1.26c-1.3,1.7-2.77,3.36-3.68,5.27c-2.2,4.61-5.09,8.62-8.74,12.18c-6.08,5.93-10.41,13.02-13.06,21.07
		c-1.4,4.23-2.48,8.56-3.6,12.87c-0.45,1.7,0.37,2.82,2.06,3.09c1.58,0.26,3.18,0.26,4.63-0.54c1.76-0.97,3.5-1.98,5.19-3.06
		c1.84-1.17,2.73-2.86,2.66-5.09c-0.07-2.3,0.01-4.6-0.01-6.9c-0.02-2.23,0.52-4.32,1.79-6.11c0.72-1.02,1.73-1.94,2.81-2.56
		c2.04-1.16,4.08-0.11,4.51,2.25c0.23,1.26,0.15,2.58,0.23,3.87c0.05,0.68-0.1,1.48,0.99,1.9c1.75-0.96,3.63-1.98,5.49-3.02
		c1.8-1,3.77-1.54,5.78-1.58c3.69-0.07,6.97,1.22,8.69,4.58c1.59,3.13,0.34,6.15-1.69,8.82c-0.17,0.23-0.36,0.45-0.56,0.65
		c-1.53,1.51-3.11,1.76-5.11,0.8c-0.38-0.19-0.75-0.43-1.1-0.67c-2.14-1.48-4.26-1.3-6.5-0.14c-3.14,1.61-5.66,3.96-7.91,6.58
		c-3.21,3.73-6.75,7.04-10.93,9.68c-4.62,2.92-9.37,5.11-15.01,3.12c-0.4-0.14-0.88-0.34-1.25-0.25c-0.66,0.17-1.3,0.48-1.86,0.86
		c-0.33,0.22-0.5,0.69-0.7,1.07c-2.24,4.2-2.22,8.86-2.66,13.42c-0.02,0.13,0.01,0.33,0.09,0.41c0.52,0.42,1.05,1.12,1.6,1.14
		c0.8,0.04,1.66-0.35,2.45-0.67c1.93-0.77,3.92-0.91,5.94-0.67c3.16,0.37,4.86,2.66,4.13,5.78c-0.35,1.52-1.02,3.01-1.82,4.34
		c-1.16,1.95-2.88,3.19-5.31,3.1c-0.72-0.03-1.44,0-2.15,0.09c-2.43,0.31-3.38,1.15-3.44,3.59c-0.1,4.16-0.05,8.34,0.11,12.5
		c0.04,1.25,0.52,2.54,1.02,3.71c0.87,2.01,2.44,3.14,4.71,3.18c1.91,0.04,3.73-0.23,5.39-1.22c1.73-1.04,3.5-2.01,5.17-3.13
		c2.12-1.42,4.31-2.15,6.91-1.6c2.5,0.52,4.86-0.11,7.07-1.31c1.39-0.75,2.69-1.69,4.11-2.36c2.73-1.29,4.13-3.39,4.47-6.36
		c0.39-3.31,1.5-6.43,2.78-9.49c1.76-4.21,4.7-7.54,8.01-10.57c0.98-0.89,2.2-1.43,3.58-0.84c1.34,0.57,1.81,1.73,1.95,3.1
		c0.26,2.73-0.55,5.1-2.26,7.21c-1.17,1.45-2.35,2.91-3.42,4.43c-0.94,1.32-1.4,2.83-1.3,4.48c0.07,1.26,0.71,2.17,1.94,2.56
		c0.68,0.21,1.4,0.32,2.11,0.42c5.94,0.82,11.33-0.77,16.56-3.51c2.9-1.52,4.44-3.49,4-6.83c-0.11-0.85,0-1.73-0.05-2.59
		c-0.3-5.28,0.66-10.37,2.86-15.12c1.75-3.76,3.97-7.31,6.02-10.93c0.27-0.49,0.69-0.93,1.12-1.3c1.77-1.54,3.95-1.14,5.09,0.88
		c0.66,1.18,0.99,2.46,0.5,3.73c-0.84,2.13-1.52,4.41-2.81,6.25c-3.72,5.29-3.13,11.17-2.78,17.05c0.07,1.14,0.9,1.76,2.03,1.87
		c2.41,0.23,4.53-0.62,6.55-1.78c4.02-2.32,6.44-6.08,8.79-9.88c0.55-0.9,0.6-1.91,0.22-2.91c-0.3-0.81-0.6-1.62-0.87-2.44
		c-1.6-4.87-1.09-9.67,0.65-14.36c0.49-1.3,1.34-2.54,2.27-3.58c0.98-1.1,2.34-1.74,3.9-1.15c1.54,0.58,2.12,1.89,2.16,3.42
		c0.05,1.72-0.11,3.45-0.04,5.17c0.04,0.93,0.39,1.84,0.68,3.16c1.05-0.69,1.93-0.99,2.35-1.61c1.45-2.13,2.79-4.34,4.08-6.57
		c1.08-1.87,1.89-3.9,3.07-5.69c1.93-2.91,4.44-4.91,8.29-4.15c0.7,0.14,1.44,0.11,2.15,0.05c3.76-0.34,5.54-2.52,5.21-6.29
		c-0.13-1.44-0.12-2.88-0.26-4.31c-0.52-5.24,1.06-9.96,3.57-14.42c0.68-1.22,1.64-2.39,2.74-3.24c1.82-1.41,4.03-0.58,4.85,1.6
		c0.53,1.41,0.45,2.84-0.02,4.23c-0.42,1.22-1.01,2.39-1.4,3.62c-0.71,2.29-0.48,4.43,1.17,6.53c2.69-1.19,4.95-2.73,7.05-4.44
		c6.73-5.47,9.6-12.74,9.46-21.27C598.33,436.93,597.87,434.51,597.56,432.09z M491.62,491.29c-3.38,7.19-7.53,13.86-13.26,19.47
		c-2.03,1.99-4.26,3.43-7.18,3.43c-1.78,0-2.86,0.84-3.8,2.32c-1.53,2.42-3.26,4.72-4.99,7c-1.91,2.52-3.82,5.01-5.05,7.98
		c-0.53,1.3-1.47,2.47-2.4,3.54c-0.87,0.99-2.08,1.61-3.48,1.18c-1.59-0.48-2.17-1.76-2.29-3.3c-0.03-0.43,0-0.86,0-1.3
		c0.01-2.36,0.82-4.55,1.98-6.52c1.81-3.09,3.85-6.05,5.83-9.03c0.56-0.84,1.22-1.6,1.89-2.35c2.3-2.6,3.42-5.61,3.3-9.08
		c-0.09-2.65,0.45-5.18,1.9-7.4c0.69-1.05,1.63-2.02,2.65-2.76c1.59-1.14,3.46-0.64,4.39,1.08c0.61,1.13,0.97,2.39,1.57,3.54
		c0.72,1.38,2.05,1.64,3.21,0.64c2.45-2.08,4.12-4.77,5.74-7.49c1.18-1.97,2.2-4.05,3.54-5.9c0.81-1.11,2.01-2.05,3.22-2.73
		c1.35-0.76,3.01-0.03,3.52,1.45c0.36,1.05,0.55,2.23,0.51,3.34C492.38,489.37,492.04,490.39,491.62,491.29z M544.21,454.42
		c-0.33,3.72-1.79,6.99-5.53,8.55c-1.43,0.6-3.03,1.02-4.56,1.07c-2.23,0.09-3.35,1.16-4.09,3.11c-0.61,1.6-1.43,3.13-2.25,4.64
		c-1.64,3.05-3.69,5.82-6.41,8c-0.99,0.79-2.12,1.51-3.31,1.91c-3.14,1.06-5.41-0.73-5.31-4.46c0.48-2.95,1.47-6.1,4.73-7.79
		c3.93-2.04,5.47-5.29,5.3-9.52c-0.06-1.71-0.31-3.42-0.44-5.13c-0.23-3.13-0.52-6.27-0.61-9.41c-0.08-2.54,0.95-4.76,2.56-6.68
		c1.07-1.28,2.41-2.15,4.14-1.56c1.51,0.51,2.2,1.82,2.38,3.31c0.16,1.28,0.09,2.58,0.16,3.87c0.06,1,0.07,2.02,0.29,2.99
		c0.64,2.8,2.09,3.87,4.92,3.63c1.14-0.09,2.27-0.35,3.41-0.5C542.58,450.04,544.48,451.5,544.21,454.42z M567.84,457.18
		c-1.08,0.38-2.22,0.77-3.34,0.79c-2.18,0.06-3.36,1.32-4.39,3c-1.27,2.08-2.62,4.12-4.02,6.12c-0.66,0.92-1.44,1.8-2.32,2.52
		c-1.03,0.84-2.28,1.29-3.59,0.54c-1.37-0.77-2.21-2.04-1.97-3.56c0.26-1.67,0.76-3.36,1.48-4.89c0.86-1.81,2.11-3.43,3.1-5.17
		c1.14-2,2.26-4.02,3.26-6.08c0.49-1.02,0.86-2.15,1.03-3.27c0.49-3.21-0.5-4.86-3.5-6.05c-0.53-0.21-1.11-0.29-1.65-0.49
		c-2.43-0.92-3.4-2.39-3.22-4.93c0.13-1.92,0.85-3.64,1.93-5.2c1.83-2.62,3.55-3.25,6.69-2.35c5.12,1.46,8.7,4.36,9.2,10.07
		c0.17,1.97,0.41,3.94,0.64,6.06c0.94,0,1.77,0.02,2.59-0.01c2.54-0.1,4.03,1.24,4.15,3.77C574.09,451.65,571.23,456,567.84,457.18z
		"/>
	<path class="st1" d="M573.91,448.05c0.18,3.6-2.68,7.95-6.07,9.13c-1.08,0.38-2.22,0.77-3.34,0.79c-2.18,0.06-3.36,1.32-4.39,3
		c-1.27,2.08-2.62,4.12-4.02,6.12c-0.66,0.92-1.44,1.8-2.32,2.52c-1.03,0.84-2.28,1.29-3.59,0.54c-1.37-0.77-2.21-2.04-1.97-3.56
		c0.26-1.67,0.76-3.36,1.48-4.89c0.86-1.81,2.11-3.43,3.1-5.17c1.14-2,2.26-4.02,3.26-6.08c0.49-1.02,0.86-2.15,1.03-3.27
		c0.49-3.21-0.5-4.86-3.5-6.05c-0.53-0.21-1.11-0.29-1.65-0.49c-2.43-0.92-3.4-2.39-3.22-4.93c0.13-1.92,0.85-3.64,1.93-5.2
		c1.83-2.62,3.55-3.25,6.69-2.35c5.12,1.46,8.7,4.36,9.2,10.07c0.17,1.97,0.41,3.94,0.64,6.06c0.94,0,1.77,0.02,2.59-0.01
		C572.3,444.18,573.79,445.52,573.91,448.05z"/>
	<path class="st1" d="M544.21,454.42c-0.33,3.72-1.79,6.99-5.53,8.55c-1.43,0.6-3.03,1.02-4.56,1.07c-2.23,0.09-3.35,1.16-4.09,3.11
		c-0.61,1.6-1.43,3.13-2.25,4.64c-1.64,3.05-3.69,5.82-6.41,8c-0.99,0.79-2.12,1.51-3.31,1.91c-3.14,1.06-5.41-0.73-5.31-4.46
		c0.48-2.95,1.47-6.1,4.73-7.79c3.93-2.04,5.47-5.29,5.3-9.52c-0.06-1.71-0.31-3.42-0.44-5.13c-0.23-3.13-0.52-6.27-0.61-9.41
		c-0.08-2.54,0.95-4.76,2.56-6.68c1.07-1.28,2.41-2.15,4.14-1.56c1.51,0.51,2.2,1.82,2.38,3.31c0.16,1.28,0.09,2.58,0.16,3.87
		c0.06,1,0.07,2.02,0.29,2.99c0.64,2.8,2.09,3.87,4.92,3.63c1.14-0.09,2.27-0.35,3.41-0.5C542.58,450.04,544.48,451.5,544.21,454.42
		z"/>
	<path class="st1" d="M492.42,488.4c-0.04,0.97-0.38,1.99-0.8,2.89c-3.38,7.19-7.53,13.86-13.26,19.47
		c-2.03,1.99-4.26,3.43-7.18,3.43c-1.78,0-2.86,0.84-3.8,2.32c-1.53,2.42-3.26,4.72-4.99,7c-1.91,2.52-3.82,5.01-5.05,7.98
		c-0.53,1.3-1.47,2.47-2.4,3.54c-0.87,0.99-2.08,1.61-3.48,1.18c-1.59-0.48-2.17-1.76-2.29-3.3c-0.03-0.43,0-0.86,0-1.3
		c0.01-2.36,0.82-4.55,1.98-6.52c1.81-3.09,3.85-6.05,5.83-9.03c0.56-0.84,1.22-1.6,1.89-2.35c2.3-2.6,3.42-5.61,3.3-9.08
		c-0.09-2.65,0.45-5.18,1.9-7.4c0.69-1.05,1.63-2.02,2.65-2.76c1.59-1.14,3.46-0.64,4.39,1.08c0.61,1.13,0.97,2.39,1.57,3.54
		c0.72,1.38,2.05,1.64,3.21,0.64c2.45-2.08,4.12-4.77,5.74-7.49c1.18-1.97,2.2-4.05,3.54-5.9c0.81-1.11,2.01-2.05,3.22-2.73
		c1.35-0.76,3.01-0.03,3.52,1.45C492.27,486.11,492.46,487.29,492.42,488.4z"/>
	<path class="st0" d="M550.86,568.13c-2.03,2.03-3.82,4.32-6.51,5.57c-0.63,0.3-1.32,0.49-2.36,0.87c-0.93-1.15-1.64-2.04-2.36-2.91
		c-4.43-5.36-9.9-8.72-17.05-8.72c-4.35,0-6.92-2.47-8.55-6.11c-2.18-4.87-3.42-10.03-4.42-15.28c1.47-2.08,3.38-3.12,5.82-3.33
		c1.42-0.12,2.83-0.45,4.26-0.59c5.09-0.5,9.3-2.82,12.96-6.24c1.66-1.56,3.25-3.19,4.86-4.78c1.14,0.81,0.67,1.93,0.91,2.84
		c0.25,0.97,0.39,1.97,0.47,2.97c0.45,5.48,2.13,10.38,6.3,14.23c0.82,0.75,1.53,1.76,1.96,2.78c1.7,4.12,3.21,8.31,4.9,12.43
		C553.05,564.27,552.72,566.27,550.86,568.13z"/>
	<path class="st0" d="M591.98,482.28c-0.71,2.18-1.45,4.37-2.47,6.42c-5.78,11.57-12.42,22.64-20.67,32.64
		c-1.91,2.32-4.08,4.44-6.29,6.47c-1.14,1.05-2.56,1.85-3.98,2.51c-2.18,1.01-3.81,0.51-5.24-1.48c-0.57-0.8-1.06-1.74-1.31-2.68
		c-1.46-5.35-1.75-10.75-0.41-16.16c0.24-0.95,0.64-1.91,1.19-2.72c2.17-3.2,4.49-6.3,6.64-9.52c1.02-1.54,2.17-2.54,4.13-2.62
		c3.95-0.16,7-2.35,9.86-4.79c1.19-1.02,2.3-2.18,3.25-3.43c1.87-2.44,4.15-4.27,6.85-5.75c2.26-1.22,4.27-2.88,6.4-4.32
		c0.55-0.37,1.16-0.65,2.02-1.12C592.79,478.15,592.63,480.25,591.98,482.28z"/>
</g>
</svg>
